<?xml version="1.0" encoding="UTF-8" standalone="no"?>
<!-- Created with Inkscape (http://www.inkscape.org/) -->

<svg
   version="1.1"
   id="svg2"
   width="474.81332"
   height="829.69336"
   viewBox="0 0 474.81332 829.69336"
   sodipodi:docname="pregnant-woman-outline.eps"
   xmlns:inkscape="http://www.inkscape.org/namespaces/inkscape"
   xmlns:sodipodi="http://sodipodi.sourceforge.net/DTD/sodipodi-0.dtd"
   xmlns="http://www.w3.org/2000/svg"
   xmlns:svg="http://www.w3.org/2000/svg">
  <defs
     id="defs6" />
  <sodipodi:namedview
     id="namedview4"
     pagecolor="#ffffff"
     bordercolor="#000000"
     borderopacity="0.25"
     inkscape:showpageshadow="2"
     inkscape:pageopacity="0.0"
     inkscape:pagecheckerboard="0"
     inkscape:deskcolor="#d1d1d1" />
  <g
     id="g8"
     inkscape:groupmode="layer"
     inkscape:label="ink_ext_XXXXXX"
     transform="matrix(1.3333333,0,0,-1.3333333,0,829.69333)">
    <g
       id="g10"
       transform="scale(0.1)">
      <path
         d="m 2395.8,4652.23 c 0,12.04 -16.49,22 -36.46,22 -32.35,0 -31.75,5.5 5.32,46.24 23.21,25.65 71.7,61.93 108.12,80.85 39.14,20.18 54.61,38.28 37.72,44 -22.22,7.54 -22.6,16.5 -1.85,41.56 14.67,17.5 29.35,58.86 32.81,91.46 3.47,32.78 18.11,105.49 32.57,161.51 26.68,104.07 14.26,217.74 -24.03,217.74 -11.61,0 -26.68,-27.28 -33.6,-60.71 -33.61,-163.74 -62.33,-231.79 -143,-339.32 -73.95,-98.18 -87.77,-133.63 -87.77,-222.23 0,-97.56 3.86,-105.1 55,-105.1 30.35,0 55.17,9.79 55.17,22 z m -33.78,-111.42 c 7.11,11.62 -7.15,31.79 -31.79,44.82 -38.1,20.57 -44.6,17.32 -44.6,-20.78 0,-45.64 52.74,-62.14 76.39,-24.04 z M 402.551,1903.7 c 147.09,158.1 157.871,250.76 185.371,363.79 -106.344,-119.35 -588.656375,89.84 -315.109,524.47 96.953,153.81 541.585,399.65 836.337,697.44 l 431.2,435.48 -10.81,104.67 c -9.15,89.63 -89.61,350.57 -116.7,378.28 -4.9,5.07 -92.88,9.97 -195.34,11 -213.05,2.21 -242.367,19.32 -238.906,139.7 1.422,45.42 -8.969,96.34 -22.61,113.06 -13.859,16.68 -26.703,74.34 -28.738,127.91 -1.824,53.57 -6.933,99.99 -11.394,102.85 -4.5,3.07 -35.457,22.81 -69.059,43.81 l -60.895,38.08 88.813,130.76 c 87.562,128.92 88.387,132.6 74.945,280.26 -17.301,187.4 16.074,316.75 111.814,434.88 39.71,49.28 79.46,112.24 87.79,139.92 21.6,69.88 157.05,154.19 288.03,179.05 60.49,11.6 139.53,32.39 175.98,46.43 91.46,35.45 354.4,36.28 473.78,1.64 104.28,-30.15 238.51,-151.55 361.71,-327.33 73.95,-105.53 159.08,-136.06 237.71,-85.53 60.3,38.89 247.27,75.54 194.31,38.07 -27.1,-18.93 -22.99,-23.42 22,-24.24 64.99,-1.22 166.62,-65.78 103.27,-65.78 -49.91,0 -46.84,-19.97 13.43,-86.96 59.28,-65.81 110.81,-205.55 108.39,-292.9 -1.03,-33.81 -22,-87.2 -46.86,-118.55 -24.64,-31.58 -66.82,-125.49 -93.7,-208.8 l -31.35,-97.35 c -18.75,-36.46 -16.93,-73.1 47.45,-109.56 49.89,-43.21 56,-55.81 26.06,-55.81 -44.8,0 -48.66,-27.93 -13.24,-94.32 25.25,-47.25 32.79,-85.77 38.1,-196.55 1.61,-34.42 39.5,-101.66 90.85,-161.12 82.29,-94.92 107.53,-160.71 74.35,-193.91 -7.75,-7.75 -33.21,10.6 -56.84,40.32 -62.11,79.24 -80.46,67.85 -87.99,-55.18 -8.98,-147.48 -53.58,-118.55 -85.97,55.79 -30.96,168.05 -36.45,174.97 -88.81,114.87 -40.31,-46.21 -42.75,-46.63 -33.39,-5.89 30.35,129.74 36.25,209.37 15.9,209.37 -29.74,0 -134.03,-155.38 -134.03,-200.01 0,-39.5 -101.23,-94.7 -135.27,-73.71 -12,7.53 -40.92,-3.89 -64.56,-25.07 -41.35,-37.68 -42.56,-36.46 -42.56,41.96 0,83.1 -34.83,108.56 -59.67,43.6 -21.18,-55.2 110.18,-263.36 368.05,-583.37 176.21,-218.75 286.97,-698.21 286.59,-1241.87 0,-248.29 62.31,-588.64 143.8,-783.15 27.9,-66.6 62.52,-180.67 77.2,-253.37 14.47,-72.75 49.89,-221.61 78.61,-330.78 51.95,-197.601 68.02,-289.448 130.55,-747.929 C 3579.64,-33.5195 3599.79,0.910156 3344.38,0.910156 H 3124.79 L 3101.36,94.6094 c -40.1,160.2736 -89.19,327.3206 -167,567.6526 -126.89,391.678 -136.28,425.488 -158.46,573.158 -19.96,131.8 -65.81,271.73 -184.35,562.18 -24.83,60.5 -77.18,201.67 -116.3,313.65 -39.32,111.85 -76.18,208.19 -82.1,214.09 -24.43,24.65 -242.58,-448.52 -270.28,-586.41 -31.76,-157.84 -83.92,-523.05 33,-682.75 67.83,-92.879 478.65,-423.051 548.53,-1041.2308 0.8,-7.71873 -415.91,-14.039044 -924.11,-14.039044 0,0 -490.08,6.320314 -924.114,0 C -44.1211,-11.9375 -298.305,1151.5 402.551,1903.7 v 0"
         style="fill:#c8259b;fill-opacity:1;fill-rule:nonzero;stroke:none"
         id="path12" />
    </g>
  </g>
</svg>
